<svg xmlns="http://www.w3.org/2000/svg" width="1076" height="1072" viewBox="0 0 1076 1072" version="1.1">
	<path d="M -0 536.001 L -0 1072.002 538.250 1071.751 L 1076.500 1071.500 1076.751 535.750 L 1077.002 0 538.501 0 L 0 0 -0 536.001 M 0.496 536.500 C 0.496 831.300, 0.610 951.751, 0.750 804.168 C 0.890 656.585, 0.890 415.385, 0.750 268.168 C 0.610 120.951, 0.496 241.700, 0.496 536.500 M 629.500 86.890 C 623.040 89.872, 620.690 93.137, 620.208 99.803 C 619.719 106.560, 619.916 107.192, 638.324 158 C 645.199 176.975, 655.583 205.670, 661.400 221.768 C 673.924 256.423, 675.331 259.408, 680.973 263.296 C 686.763 267.287, 699.550 263.818, 703.330 257.231 C 706.975 250.880, 705.980 245.831, 695.189 215.917 C 683.533 183.604, 681.549 176.208, 682.237 167.641 C 683.913 146.758, 706.839 133.397, 721.724 144.629 C 727.442 148.944, 732.401 159.473, 744.636 193.281 C 757.744 229.499, 759.820 233.310, 767.348 234.980 C 772.899 236.211, 780.035 233.863, 783.810 229.563 C 787.363 225.517, 788.425 221.501, 787.467 215.728 C 786.693 211.057, 764.552 149.024, 760.260 139.500 C 754.678 127.113, 747.129 118.827, 737.175 114.160 C 732.054 111.760, 730.378 111.501, 720 111.513 L 708.500 111.525 698.931 116.197 C 686.958 122.042, 680.381 128.363, 674.836 139.353 C 672.657 143.673, 670.695 147.028, 670.477 146.810 C 670.259 146.592, 666.068 135.382, 661.165 121.899 C 651.390 95.019, 650.296 92.530, 646.845 89.317 C 641.934 84.744, 635.961 83.908, 629.500 86.890 M 565.500 166.074 C 540.547 168.685, 517.954 183.111, 508.451 202.500 C 503.035 213.552, 501.660 220.585, 502.295 234 C 502.871 246.153, 504.563 253.381, 509.688 265.579 C 521.653 294.057, 546.358 308.970, 574.913 304.952 C 597.222 301.813, 618.321 290.109, 628.926 274.990 C 643.292 254.510, 639.966 231, 622.703 231 C 615.954 231, 611.870 235.195, 609.048 245.027 C 607.868 249.137, 606.385 254.241, 605.752 256.368 C 602.770 266.396, 595.253 273.606, 584.230 277.011 C 576.111 279.518, 572.852 279.507, 564.547 276.942 C 559.068 275.249, 556.872 273.872, 552.192 269.189 C 534.605 251.592, 529.489 219.372, 541.848 204.033 C 545.835 199.085, 552.343 195.319, 560.283 193.365 C 568.911 191.242, 574.905 192.408, 584.051 197.989 C 587.598 200.153, 592.817 203.137, 595.648 204.620 C 600.475 207.148, 601.079 207.238, 605.313 206.052 C 607.797 205.357, 610.931 203.598, 612.278 202.144 C 627.839 185.348, 598.380 162.632, 565.500 166.074 M 407.500 171.871 C 401.638 175.512, 399.656 178.596, 399.217 184.764 C 398.859 189.790, 399.513 192.457, 404.506 206.315 C 407.639 215.013, 410.045 222.260, 409.852 222.419 C 409.658 222.577, 407.448 223.891, 404.939 225.338 C 396.373 230.278, 393.757 235.515, 396.717 241.794 C 398.884 246.392, 403.095 248.348, 409.414 247.694 C 412.211 247.404, 415.450 246.868, 416.611 246.503 C 418.538 245.897, 419.099 246.875, 423.014 257.670 C 446.011 321.079, 448.856 327.711, 456.085 334.779 C 463.099 341.636, 474.824 342.803, 488.999 338.054 C 502.305 333.596, 506.955 331.089, 513.250 324.981 C 518.492 319.895, 519 319.022, 519 315.105 C 519 306.990, 513.840 302.203, 506.231 303.260 C 504.179 303.546, 499.644 305.404, 496.154 307.389 C 486.839 312.689, 480.064 311.892, 476.542 305.082 C 473.872 299.918, 450.926 235.636, 451.354 234.519 C 451.595 233.892, 453.526 232.848, 455.646 232.199 C 462.973 229.955, 470.047 225.131, 471.656 221.282 C 473.002 218.059, 472.989 217.261, 471.530 213.438 C 468.562 205.668, 461.190 204.305, 448.094 209.107 C 445.121 210.197, 442.380 210.731, 442.004 210.294 C 441.627 209.857, 439.602 204.550, 437.502 198.500 C 432.949 185.378, 429.054 177.293, 425.850 174.317 C 420.920 169.737, 412.700 168.641, 407.500 171.871 M 163.142 258.474 C 138.195 267.496, 116.087 276, 114.013 277.373 C 111.800 278.837, 109.338 281.737, 108.053 284.390 C 104.371 291.996, 102.124 284.660, 141.434 393.352 C 151.049 419.937, 159.168 440.840, 160.758 443.099 C 163.667 447.232, 170.024 451.004, 174.066 450.994 C 181.787 450.977, 189.965 445.666, 192.064 439.306 C 194.099 433.141, 192.451 426.449, 181.527 396.504 C 175.708 380.556, 171.072 366.909, 171.224 366.177 C 171.380 365.423, 183.855 360.395, 200 354.580 C 231.321 343.298, 233.357 342.413, 237 338.514 C 238.955 336.422, 239.500 334.782, 239.500 330.993 C 239.500 325.458, 237.198 321.617, 232.087 318.624 C 227.532 315.956, 223.096 317.050, 190.018 328.994 C 174.776 334.497, 161.899 338.995, 161.403 338.988 C 160.491 338.976, 144.702 295.964, 145.366 295.300 C 145.563 295.103, 160.974 289.405, 179.612 282.638 C 198.251 275.871, 215.375 269.369, 217.666 268.190 C 223.237 265.322, 226 261.268, 226 255.964 C 226 247.956, 220.104 241.962, 212.300 242.036 C 209.971 242.058, 190.945 248.420, 163.142 258.474 M 335.316 249.093 C 318.383 250.721, 300.678 259.364, 288.185 272.101 C 283.020 277.367, 275.537 292.206, 274.117 300 C 272.599 308.333, 273.437 323.343, 275.931 332.500 C 285.953 369.283, 310.642 389.630, 342.912 387.699 C 358.340 386.777, 376.049 380.279, 388.192 371.087 C 401.825 360.766, 409.212 348.940, 409.844 336.420 C 410.187 329.632, 410.049 329.086, 407.184 325.881 C 404.557 322.941, 403.574 322.512, 399.643 322.594 C 393.474 322.723, 390.751 324.809, 386.406 332.736 C 376.798 350.264, 372.058 355.654, 362.110 360.368 C 356.294 363.124, 354.478 363.497, 347 363.476 C 339.740 363.456, 337.771 363.064, 333.500 360.788 C 327.734 357.717, 324.693 355.108, 320.338 349.500 C 316.696 344.810, 313.622 337.940, 314.727 336.962 C 315.152 336.586, 330.125 330.987, 348 324.520 C 383.594 311.642, 388.064 309.691, 393.300 304.754 C 398.210 300.123, 398.848 295.859, 395.972 286.914 C 391.550 273.160, 380.270 260.301, 367.500 254.455 C 356.541 249.438, 347.461 247.925, 335.316 249.093 M 328.972 274.321 C 315.200 277.382, 306.824 286.703, 305.398 300.555 C 304.863 305.753, 306.180 317.514, 307.438 318.771 C 308.247 319.580, 365 298.569, 365 297.461 C 365 295.183, 361.032 288.317, 357.202 283.966 C 349.580 275.309, 339.707 271.936, 328.972 274.321 M 661.469 395.122 C 657.276 396.259, 652.241 401.464, 650.853 406.095 C 649.500 410.613, 650.797 416.455, 657.143 434.418 C 659.264 440.423, 660.995 445.823, 660.989 446.418 C 660.982 447.013, 659.153 448.374, 656.923 449.443 C 651.937 451.832, 647 457.277, 647 460.386 C 647 469.844, 654.959 474.783, 665.178 471.666 C 669.850 470.241, 669.858 470.242, 670.897 472.869 C 671.470 474.316, 676.418 487.875, 681.894 503 C 697.111 545.035, 700.685 552.772, 707.883 559.276 C 715.185 565.873, 725.457 567.117, 739 563.045 C 756.084 557.908, 768.200 549.481, 770.004 541.481 C 771.210 536.135, 768.877 530.644, 764.521 528.577 C 759.661 526.271, 757.624 526.581, 749.671 530.840 C 737.085 537.578, 732.016 536.912, 727.459 527.919 C 725.194 523.450, 702 460.643, 702 458.980 C 702 458.658, 704.362 457.569, 707.250 456.560 C 712.453 454.741, 718.488 451.556, 720.592 449.517 C 725.047 445.201, 725.090 439.160, 720.700 434.370 C 717.725 431.123, 716.891 430.769, 712.216 430.769 C 709.364 430.769, 704.106 431.802, 700.529 433.065 C 696.953 434.327, 693.757 435.090, 693.427 434.761 C 693.097 434.431, 690.428 427.618, 687.495 419.621 C 684.561 411.625, 681.408 403.806, 680.486 402.245 C 676.967 396.289, 668.650 393.173, 661.469 395.122 M 590.500 471.944 C 578.594 474.375, 575.868 475.083, 569 477.531 C 537.005 488.937, 518.263 510.254, 522.972 529.884 C 523.857 533.574, 525.163 535.814, 527.753 538.088 C 531.057 540.989, 531.748 541.186, 537.203 540.792 C 545.188 540.214, 547.252 538.006, 550.575 526.486 C 553.753 515.468, 556.934 510.232, 562.914 506.177 C 568.555 502.353, 578.780 498.465, 585.636 497.538 C 589.774 496.979, 591.548 497.239, 594.761 498.878 C 600.336 501.722, 605.353 507.974, 607.405 514.636 C 607.982 516.512, 606.138 518.048, 592.281 527.235 C 583.602 532.989, 573.575 539.432, 570 541.551 C 548.260 554.437, 540.425 562.996, 538.090 576.407 C 535.309 592.375, 543.573 608.241, 558.468 615.528 C 565.979 619.203, 579.058 620.083, 588.229 617.530 C 603.880 613.173, 617.913 603.073, 628.670 588.423 C 631.264 584.890, 633.780 582, 634.263 582 C 634.745 582, 637.021 583.288, 639.320 584.863 C 650.057 592.218, 656.564 593.828, 662.707 590.651 C 667.683 588.078, 670.500 583.324, 670.500 577.500 C 670.500 572.979, 669.874 571.590, 663.963 563 C 656.855 552.670, 653.905 546.569, 648.975 532 C 637.758 498.851, 631.899 486.859, 623.157 479.160 C 616.249 473.076, 601.221 469.756, 590.500 471.944 M 366.181 497.554 C 363.852 498.242, 360.901 499.490, 359.623 500.327 C 356.462 502.399, 354 507.933, 354 512.968 C 354 517.934, 406.395 664.034, 410.131 669.487 C 413.554 674.482, 419.230 677.379, 424.075 676.604 C 433.172 675.149, 438.474 670.141, 439.589 661.950 C 440.122 658.032, 438.941 653.970, 429.718 628 C 423.956 611.775, 418.463 595.351, 417.512 591.503 C 412.625 571.729, 424.128 553.732, 442.635 552.197 C 446.619 551.867, 448.954 552.283, 452.359 553.932 C 460.966 558.099, 464.192 564.202, 477.904 602.278 C 490.255 636.574, 491.608 639.651, 495.951 643.305 C 499.928 646.651, 502.307 647.331, 507.381 646.570 C 512.775 645.761, 517.487 642.862, 520.073 638.759 C 523.980 632.560, 522.602 626.451, 508.732 588.500 C 493.995 548.174, 491.661 542.978, 485.008 535.699 C 479.197 529.341, 473.811 525.903, 466.068 523.609 C 445.520 517.521, 418.871 530.225, 409.057 550.786 C 407.163 554.754, 405.327 558, 404.977 558 C 404.627 558, 400.407 547.060, 395.599 533.690 C 390.790 520.319, 385.876 507.649, 384.678 505.534 C 380.556 498.256, 373.750 495.320, 366.181 497.554 M 319 517.991 C 317.075 518.366, 295.925 525.775, 272 534.455 C 248.075 543.135, 221.880 552.632, 213.788 555.560 C 205.697 558.488, 197.665 561.922, 195.941 563.192 C 188.281 568.830, 187.868 579.335, 195.037 586.185 C 200.271 591.188, 205.674 590.463, 230.785 581.385 C 242.069 577.306, 251.414 574.088, 251.550 574.234 C 251.687 574.380, 262.207 603.300, 274.928 638.500 C 298.400 703.451, 301.409 710.455, 306.962 713.065 C 312.587 715.711, 316.140 715.919, 321.487 713.919 C 329.784 710.815, 333.289 705.851, 333.212 697.314 C 333.163 691.877, 332.100 688.790, 296.438 590.500 C 290.851 575.100, 286.622 562.116, 287.042 561.648 C 287.462 561.179, 296.945 557.483, 308.115 553.434 C 329.609 545.644, 332.119 544.329, 335.838 538.908 C 337.756 536.112, 338.070 534.692, 337.582 531 C 336.328 521.496, 328.639 516.113, 319 517.991 M 612.588 536.857 C 612.261 537.387, 608.282 540.260, 603.747 543.242 C 599.211 546.223, 590.958 551.648, 585.407 555.296 C 570.113 565.345, 566.467 572.343, 571.360 582.259 C 575.140 589.921, 579.453 592.504, 588.431 592.485 C 594.272 592.473, 596.527 591.952, 601.412 589.485 C 608.834 585.737, 615.145 579.620, 618.577 572.849 C 622.286 565.529, 622.207 556.488, 618.333 545.012 C 615.659 537.088, 613.947 534.658, 612.588 536.857 M 889.558 623.492 C 883.769 625.554, 880.780 628.074, 878.209 633.059 C 875.567 638.181, 875.527 642.991, 878.064 650.500 C 879.969 656.137, 891.532 683.193, 903.493 710 C 906.070 715.775, 909.307 723.200, 910.687 726.500 C 916.601 740.647, 924.442 748.299, 930.625 745.956 C 936.373 743.778, 938.004 741.246, 937.956 734.576 C 937.907 727.685, 937.338 724.573, 933.556 710.500 C 931.084 701.301, 926.714 684.920, 922.085 667.500 C 915.958 644.437, 911.217 632.617, 905.838 626.988 C 900.960 621.884, 896.663 620.961, 889.558 623.492 M 809 707.573 C 782.295 712.049, 760.728 729.170, 753.715 751.458 C 750.632 761.259, 750.688 778.864, 753.842 791 C 756.106 799.711, 761.757 811.880, 767.238 819.845 C 774.551 830.475, 786.072 839.136, 798.172 843.100 C 808.704 846.549, 825.996 846.400, 837.500 842.759 C 858.528 836.104, 871.642 827.325, 880.532 813.952 C 885.759 806.090, 887.974 799.648, 887.989 792.266 C 887.998 787.887, 887.523 786.498, 885.082 783.766 C 882.604 780.992, 881.484 780.500, 877.655 780.500 C 872.079 780.500, 868.388 783.030, 865.123 789.089 C 856.819 804.503, 852.760 809.988, 846.072 814.833 C 831.860 825.128, 813.699 823.777, 802.150 811.565 C 796.830 805.940, 791.319 796.273, 792.672 794.941 C 793.127 794.492, 807.450 789.102, 824.500 782.963 C 859.236 770.457, 866.344 767.323, 871.370 762.296 C 876.288 757.379, 876.805 753.117, 873.603 743.910 C 864.462 717.624, 837.962 702.719, 809 707.573 M 601.276 727.656 C 592.802 730.652, 589.394 739.156, 592.284 750.093 C 593.959 756.432, 642.531 891.083, 644.736 895.500 C 648.143 902.325, 653.457 906, 659.916 906 C 665.573 906, 670.264 903.446, 673.350 898.686 C 677.462 892.346, 677.010 886.934, 671 870.500 C 668.250 862.981, 666 856.198, 666 855.426 C 666 853.146, 676.359 833, 677.531 833 C 678.123 833, 689.608 841.818, 703.053 852.595 C 716.499 863.372, 729.444 873.334, 731.821 874.731 C 744.101 881.955, 758.670 871.630, 755.069 858.256 C 753.443 852.217, 750.540 849.275, 732.606 835.485 C 695.401 806.878, 691.485 803.805, 691.186 802.981 C 691.014 802.506, 694.253 795.678, 698.386 787.808 C 706.230 772.871, 709.174 764.397, 708.242 759.436 C 706.110 748.078, 691.696 745.019, 683.360 754.155 C 680.225 757.592, 673.274 772.479, 655.772 813.250 C 654.651 815.862, 653.398 818, 652.988 818 C 652.011 818, 652.173 818.422, 636.610 775.357 C 624.372 741.495, 621.540 734.621, 618.513 731.433 C 614.321 727.020, 607.379 725.498, 601.276 727.656 M 807.500 731.979 C 792.991 735.078, 784.577 744.729, 783.321 759.714 C 782.820 765.685, 784.278 777, 785.549 777 C 786.799 777, 841.636 756.764, 842.367 756.033 C 843.689 754.711, 839.923 747.306, 835.211 741.966 C 827.917 733.700, 817.322 729.881, 807.500 731.979 M 937.018 768.130 C 928.843 773.113, 925.805 781.819, 928.932 791.294 C 931.110 797.893, 939.748 803.233, 946.899 802.400 C 951.196 801.900, 958.063 798.784, 960.212 796.359 C 967.847 787.743, 964.930 772.516, 954.715 767.669 C 949.685 765.282, 941.333 765.500, 937.018 768.130 M 382.401 806.905 C 374.647 810.427, 371.440 818.696, 373.939 828.719 C 374.595 831.349, 383.149 855.775, 392.949 883 C 413.867 941.116, 412.810 937.911, 413.517 945.367 C 414.683 957.657, 409.255 966.890, 398.496 970.915 C 385.222 975.882, 377.061 971.745, 365.462 954.168 C 359.889 945.723, 355.117 941.395, 350.640 940.725 C 345.857 940.009, 338.331 942.858, 335.008 946.644 C 329.308 953.135, 329.962 961.196, 337.177 973.388 C 350.414 995.756, 367.898 1005.466, 390 1002.725 C 399.341 1001.567, 417.532 995.518, 421.079 992.392 C 421.947 991.626, 423.007 991, 423.435 991 C 423.862 991, 426.077 989.575, 428.356 987.833 C 441.784 977.571, 450 961.878, 450 946.495 C 450 936.886, 446.725 924.255, 437.878 899.738 C 432.869 885.857, 424.066 861.452, 418.316 845.505 C 412.565 829.558, 406.946 815.030, 405.828 813.222 C 404.710 811.413, 402.162 808.823, 400.166 807.467 C 395.677 804.417, 388.388 804.187, 382.401 806.905 M 526.660 809.990 C 479.746 818.423, 456.313 855.371, 470.209 899 C 477.671 922.426, 492.211 938.258, 513.165 945.771 C 519.521 948.050, 522.102 948.404, 532.500 948.424 C 542.376 948.442, 545.827 948.027, 552 946.082 C 577.905 937.916, 593.371 924.116, 600.447 902.852 C 608.264 879.359, 600.124 847.388, 581.500 828.436 C 568.814 815.526, 557.643 810.442, 540 809.550 C 535.325 809.313, 529.322 809.512, 526.660 809.990 M 524.355 835.992 C 513.496 838.265, 504.826 845.555, 501.014 855.619 C 499.078 860.730, 498.853 862.809, 499.296 871.500 C 500.479 894.725, 513.873 916.226, 530.394 921.423 C 544.563 925.880, 561.316 918.091, 567.870 904 C 570.118 899.165, 570.421 897.230, 570.374 888 C 570.326 878.719, 569.940 876.456, 567.049 868.500 C 562.873 857.011, 559.839 851.873, 553.561 845.660 C 545.305 837.491, 534.416 833.887, 524.355 835.992" stroke="none" fill="black" fill-rule="evenodd"/>
</svg>